<?xml version="1.0" encoding="utf-8"?>
<!-- Generator: Adobe Illustrator 25.0.1, SVG Export Plug-In . SVG Version: 6.00 Build 0)  -->
<svg version="1.1" id="Layer_1" xmlns="http://www.w3.org/2000/svg" xmlns:xlink="http://www.w3.org/1999/xlink" x="0px" y="0px"
	 viewBox="0 0 70 70" style="enable-background:new 0 0 70 70;" xml:space="preserve">
<style type="text/css">
	.st0{fill:url(#SVGID_1_);}
	.st1{fill:url(#SVGID_2_);}
	.st2{fill:#40E4FB;}
	.st3{fill:#222B36;}
</style>
<g>
	
		<linearGradient id="SVGID_1_" gradientUnits="userSpaceOnUse" x1="-2157.2275" y1="23.3316" x2="-2132.7344" y2="23.3316" gradientTransform="matrix(-0.9623 -0.272 0.272 -0.9623 -2024.4675 -510.4436)">
		<stop  offset="0" style="stop-color:#5B7CFB"/>
		<stop  offset="0.98" style="stop-color:#5B7DFA;stop-opacity:0.5"/>
	</linearGradient>
	<path class="st0" d="M49.5,40.9c-2,6.9-9.1,11-16.1,9.2l-3.1,11.1l4.3,1.2l1.4-4.9c2.2,0.1,4.4-0.2,6.4-0.8l2.5,4.5l8.1-4.5
		l-2.5-4.5c1.6-1.4,2.9-3.1,4-5.1l4.9,1.4l2.5-8.7l-11.9-3.3C50,37.9,49.9,39.4,49.5,40.9z"/>
	<linearGradient id="SVGID_2_" gradientUnits="userSpaceOnUse" x1="24.1487" y1="32.6995" x2="38.38" y2="32.6995">
		<stop  offset="0" style="stop-color:#EFA020"/>
		<stop  offset="0.98" style="stop-color:#EFA020;stop-opacity:0.5"/>
	</linearGradient>
	<circle class="st1" cx="31.3" cy="32.7" r="7.1"/>
	<g>
		<path class="st2" d="M25.4,48.5l-0.2,0.7l4.3,6.5l0.7-0.2l2.9-9.7l-0.5-0.5L25.4,48.5z"/>
	</g>
	<g>
		<path class="st2" d="M44.2,21.8l0.2-0.7l-4.3-6.5l-0.7,0.2l-2.9,9.7l0.5,0.5L44.2,21.8z"/>
	</g>
	<g>
		<path class="st3" d="M60.6,37.5l-4.5-1.6c0.2-2,0-3.9-0.3-5.9l4.3-2l0.3-0.9l-4.1-8.7l-0.9-0.3l-4.4,2.1c-1.3-1.5-2.7-2.8-4.3-3.9
			l1.6-4.5L48,10.9l-9-3.2L38.1,8l-1.6,4.5c-2-0.2-3.9-0.1-5.9,0.3l-2-4.3l-0.9-0.3L19,12.3l-0.3,0.9l2,4.2
			c-1.6,1.3-2.9,2.8-4.1,4.4l-4.3-1.5l-0.8,0.4l-3.2,9l0.4,0.8l4.2,1.5c-0.2,2-0.1,4.1,0.3,6.1l-4,1.9l-0.3,0.9l4.1,8.7l0.9,0.3
			l4-1.9c1.3,1.6,2.9,3,4.6,4.1l-1.5,4.1l0.4,0.8l9,3.2l0.8-0.4l1.5-4.2c2.1,0.2,4.1,0.1,6.1-0.4l1.9,4l0.9,0.3l8.7-4.1l0.3-0.9
			l-2-4.2c1.5-1.3,2.9-2.8,4-4.5l4.4,1.6l0.8-0.4l3.2-9L60.6,37.5z M56.7,46.3l-4.2-1.5L51.7,45c-1.2,1.9-2.7,3.5-4.4,4.9l-0.2,0.8
			l1.9,4l-7.5,3.5l-1.8-3.9L39,54c-2.2,0.5-4.5,0.6-6.7,0.4l-0.7,0.4l-1.5,4l-7.8-2.8l1.4-4l-0.3-0.8c-1.9-1.2-3.6-2.7-5-4.6
			l-0.8-0.2l-3.8,1.8L10.3,41l3.9-1.8l0.4-0.7c-0.5-2.2-0.6-4.5-0.3-6.7L13.8,31l-4.1-1.5l2.8-7.8l4.1,1.5l0.8-0.3
			c1.2-1.9,2.7-3.5,4.5-4.9l0.2-0.8l-1.9-4.1l7.5-3.5l1.9,4.1l0.7,0.4c2.2-0.4,4.4-0.5,6.5-0.3l0.7-0.4l1.6-4.4l7.8,2.8l-1.6,4.4
			l0.3,0.8c1.8,1.2,3.4,2.6,4.8,4.3l0.8,0.2l4.2-2l3.5,7.5l-4.2,2l-0.4,0.7c0.5,2.1,0.6,4.3,0.4,6.5l0.4,0.7l4.3,1.6L56.7,46.3z"/>
		<path class="st3" d="M31.7,42.2c0.9,0.3,1.8,0.5,2.8,0.5c1.2,0,2.4-0.3,3.5-0.8c2-0.9,3.5-2.6,4.2-4.6c0.7-2.1,0.6-4.3-0.3-6.3
			c-0.9-2-2.6-3.5-4.6-4.2c-4.3-1.5-9,0.7-10.5,5S27.4,40.7,31.7,42.2z M27.9,32.2c1.3-3.6,5.2-5.4,8.8-4.2c1.7,0.6,3.1,1.9,3.9,3.5
			c0.8,1.7,0.9,3.5,0.3,5.3c-0.6,1.7-1.9,3.1-3.5,3.9c-1.7,0.8-3.5,0.9-5.3,0.3C28.5,39.7,26.7,35.8,27.9,32.2z"/>
		<path class="st3" d="M39.9,20.6l-2.1,1.2l0.7,1.1l3.3-1.9l0.2-0.9l-1.9-3.3l-1.1,0.7l0.9,1.6c-1.7-0.6-3.6-0.9-5.4-0.9
			c-9.3,0-16.8,7.5-16.8,16.8c0,3.4,1,6.6,2.9,9.4l1.1-0.7c-1.7-2.6-2.6-5.6-2.6-8.7c0-8.5,7-15.5,15.5-15.5
			C36.3,19.6,38.2,19.9,39.9,20.6z"/>
		<path class="st3" d="M47.3,26.5c1.7,2.6,2.6,5.6,2.6,8.7c0,8.5-7,15.5-15.5,15.5c-1.9,0-3.8-0.4-5.6-1l2-1.1l-0.6-1.2l-3.3,1.8
			l-0.3,0.9l1.8,3.3l1.2-0.6l-1-1.8c1.8,0.7,3.8,1,5.8,1c9.3,0,16.8-7.5,16.8-16.8c0-3.4-1-6.6-2.9-9.4L47.3,26.5z"/>
	</g>
</g>
</svg>
