<?xml version="1.0" encoding="utf-8"?>
<!-- Generator: Adobe Illustrator 25.0.1, SVG Export Plug-In . SVG Version: 6.00 Build 0)  -->
<svg version="1.1" id="Layer_1" xmlns="http://www.w3.org/2000/svg" xmlns:xlink="http://www.w3.org/1999/xlink" x="0px" y="0px"
	 viewBox="0 0 70 70" style="enable-background:new 0 0 70 70;" xml:space="preserve">
<style type="text/css">
	.st0{fill:#40E4FB;}
	.st1{fill:url(#SVGID_1_);}
	.st2{fill:url(#SVGID_2_);}
	.st3{fill:#222B36;}
</style>
<g>
	<circle class="st0" cx="51.5" cy="20.4" r="6"/>
	<linearGradient id="SVGID_1_" gradientUnits="userSpaceOnUse" x1="3.9407" y1="33.7385" x2="20.3722" y2="33.7385">
		<stop  offset="0" style="stop-color:#EFA020"/>
		<stop  offset="0.98" style="stop-color:#EFA020;stop-opacity:0.5"/>
	</linearGradient>
	<path class="st1" d="M20.4,34.4c0-3.2-2.6-5.9-5.9-5.9H9.8c-3.2,0-5.9,2.6-5.9,5.9v4.4h16.4V34.4z"/>
	<linearGradient id="SVGID_2_" gradientUnits="userSpaceOnUse" x1="38.5238" y1="51.1148" x2="52.685" y2="51.1148">
		<stop  offset="0" style="stop-color:#5B7CFB"/>
		<stop  offset="0.98" style="stop-color:#5B7DFA;stop-opacity:0.5"/>
	</linearGradient>
	<rect x="38.5" y="44.1" class="st2" width="14.2" height="14"/>
	<g>
		<path class="st3" d="M58.4,33.2l-13.3,0l-7.8,0.1c-3.5,0-6.3-2.8-6.3-6.3s2.8-6.3,6.3-6.3h6c0.1,4.6,3.9,8.3,8.5,8.3
			c4.7,0,8.5-3.8,8.5-8.5c0-4.7-3.8-8.5-8.5-8.5c-4.3,0-7.9,3.3-8.5,7.4h-6.1c-4.2,0-7.7,3.4-7.7,7.7c0,4.2,3.4,7.7,7.7,7.7l7.8-0.1
			h13.3c3.5,0,6.3,2.8,6.3,6.3s-2.8,6.3-6.3,6.3h-1.7v-6.3l-0.7-0.7H42l-0.7,0.7v6.3h-11c-0.2-4.5-4-8.1-8.5-8.1
			c-4.7,0-8.5,3.8-8.5,8.5s3.8,8.5,8.5,8.5c4.4,0,8.1-3.4,8.5-7.7h11v6.5l0.7,0.7h14.1l0.7-0.7v-6.5h1.7c4.2,0,7.7-3.4,7.7-7.7
			C66.1,36.6,62.6,33.2,58.4,33.2z M51.9,13.2c4,0,7.2,3.2,7.2,7.2c0,4-3.2,7.2-7.2,7.2s-7.2-3.2-7.2-7.2
			C44.6,16.4,47.9,13.2,51.9,13.2z M21.8,54.8c-4,0-7.2-3.2-7.2-7.2s3.2-7.2,7.2-7.2c4,0,7.2,3.2,7.2,7.2S25.8,54.8,21.8,54.8z
			 M55.4,54.3H42.6V41.5h12.8V54.3z"/>
		<polygon class="st3" points="51.2,24.3 52.5,24.3 52.5,21.1 55.8,21.1 55.8,19.7 52.5,19.7 52.5,16.5 51.2,16.5 51.2,19.7 
			47.9,19.7 47.9,21.1 51.2,21.1 		"/>
		<polygon class="st3" points="22.5,43.7 21.2,43.7 21.2,47 17.9,47 17.9,48.3 21.2,48.3 21.2,51.5 22.5,51.5 22.5,48.3 25.7,48.3 
			25.7,47 22.5,47 		"/>
		<path class="st3" d="M12.9,18.5c0.8-2.4,3-4.1,5.5-4.1h0c2.5,0,4.8,1.6,5.5,4l0.1,0.2l1.3-0.4l-0.1-0.2c-0.7-2.3-2.4-4-4.7-4.7
			c-3.7-1.1-7.6,1-8.8,4.7l-0.1,0.2l1.3,0.4L12.9,18.5z"/>
		<path class="st3" d="M23.9,21.8c-0.7,2.4-2.9,4-5.5,4c-2.5,0-4.7-1.6-5.5-4.1l-0.1-0.2l-1.3,0.4l0.1,0.2c0.9,2.9,3.7,5,6.7,5
			c3.1,0,5.8-2,6.7-4.9l0.1-0.2l-1.3-0.4L23.9,21.8z"/>
		<path class="st3" d="M22.4,31.7c1.2,0,2.3,0.4,3.2,1.1l0.2,0.1l0.9-0.9l-0.2-0.2c-1.2-1-2.6-1.5-4.1-1.5h-7.9
			c-3.6,0-6.5,2.9-6.5,6.5v3.8h1.3v-3.8c0-2.9,2.3-5.2,5.2-5.2H22.4z"/>
	</g>
</g>
</svg>
