<?xml version="1.0" encoding="utf-8"?>
<!-- Generator: Adobe Illustrator 25.0.1, SVG Export Plug-In . SVG Version: 6.00 Build 0)  -->
<svg version="1.1" id="Layer_1" xmlns="http://www.w3.org/2000/svg" xmlns:xlink="http://www.w3.org/1999/xlink" x="0px" y="0px"
	 viewBox="0 0 70 70" style="enable-background:new 0 0 70 70;" xml:space="preserve">
<style type="text/css">
	.st0{fill:#50E3C2;}
	.st1{fill:#40E4FB;}
	.st2{fill:url(#SVGID_1_);}
	.st3{fill:url(#SVGID_2_);}
	.st4{fill:#222B36;}
</style>
<g>
	<rect x="39.8" y="48.5" class="st0" width="10.2" height="10.2"/>
	<rect x="12.9" y="53.8" class="st1" width="9.1" height="9.1"/>
	<linearGradient id="SVGID_1_" gradientUnits="userSpaceOnUse" x1="12.4629" y1="36.3839" x2="25.7572" y2="36.3839">
		<stop  offset="0" style="stop-color:#5B7CFB"/>
		<stop  offset="0.98" style="stop-color:#5B7DFA;stop-opacity:0.5"/>
	</linearGradient>
	<path class="st2" d="M19.1,29.7c-3.7,0-6.6,3-6.6,6.6c0,3.7,3,6.6,6.6,6.6c3.7,0,6.6-3,6.6-6.6C25.8,32.7,22.8,29.7,19.1,29.7z
		 M19.1,39.9c-1.9,0-3.5-1.6-3.5-3.5c0-1.9,1.6-3.5,3.5-3.5c1.9,0,3.5,1.6,3.5,3.5C22.6,38.3,21,39.9,19.1,39.9z"/>
	<linearGradient id="SVGID_2_" gradientUnits="userSpaceOnUse" x1="31.3468" y1="16.6314" x2="50.4092" y2="16.6314">
		<stop  offset="0" style="stop-color:#EFA020"/>
		<stop  offset="0.98" style="stop-color:#EFA020;stop-opacity:0.5"/>
	</linearGradient>
	<path class="st3" d="M40.9,7.1c-5.3,0-9.5,4.3-9.5,9.5c0,5.3,4.3,9.5,9.5,9.5c5.3,0,9.5-4.3,9.5-9.5C50.4,11.4,46.1,7.1,40.9,7.1z"
		/>
	<g>
		<path class="st4" d="M19.7,49.2l5-7.1c1.2-1.7,2.2-3.3,2.2-5.4c0-4.3-3.5-7.8-7.8-7.8s-7.8,3.5-7.8,7.8c0,1.2,0.3,2.3,0.9,3.5
			c0.2,0.4,0.5,0.8,0.8,1.3l5.4,7.7L19.7,49.2z M13.5,39.5L13.5,39.5c-0.5-1-0.8-1.9-0.8-2.9c0-3.6,2.9-6.4,6.4-6.4s6.4,2.9,6.4,6.4
			c0,1.8-0.8,3.1-2,4.7l-4.5,6.3l-4.9-6.9C13.9,40.3,13.7,39.9,13.5,39.5z"/>
		<path class="st4" d="M40.5,22.1l5.4,7.7l1.1,0l5-7.1c1.2-1.7,2.2-3.3,2.2-5.4c0-4.3-3.5-7.8-7.8-7.8s-7.8,3.5-7.8,7.8
			c0,1.2,0.3,2.3,0.9,3.5C39.9,21.2,40.2,21.6,40.5,22.1z M46.5,10.9c3.6,0,6.4,2.9,6.4,6.4c0,1.8-0.8,3.1-1.9,4.7l-4.5,6.3
			l-4.9-6.9c-0.3-0.5-0.6-0.8-0.8-1.2v0c-0.5-1-0.8-1.9-0.8-2.9C40.1,13.8,43,10.9,46.5,10.9z"/>
		<path class="st4" d="M53,45.7l-9.5,0L38,45.8c-2.4,0-4.3-1.9-4.3-4.3s1.9-4.3,4.3-4.3h4v4l0.7,0.7h8.2l0.7-0.7V33l-0.7-0.7h-8.2
			L41.9,33v2.9h-4c-3.1,0-5.6,2.5-5.6,5.6c0,3.1,2.5,5.6,5.7,5.6l5.5-0.1H53c2.4,0,4.3,1.9,4.3,4.3s-1.9,4.3-4.3,4.3h-1.5V52
			l-0.7-0.7h-8.2L41.9,52v3.7H24.2V52l-0.7-0.7h-8.2L14.7,52v8.2l0.7,0.7h8.2l0.7-0.7V57h17.7v3.2l0.7,0.7h8.2l0.7-0.7V57H53
			c3.1,0,5.6-2.5,5.6-5.6S56.1,45.7,53,45.7z M43.3,33.6h6.9v6.9h-6.9V33.6z M22.9,59.6H16v-6.9h6.9V59.6z M50.2,59.6h-6.9v-6.9h6.9
			V59.6z"/>
		<path class="st4" d="M22.7,36.2c0-2-1.6-3.6-3.6-3.6s-3.6,1.6-3.6,3.6s1.6,3.6,3.6,3.6S22.7,38.2,22.7,36.2z M16.9,36.2
			c0-1.3,1-2.3,2.3-2.3c1.3,0,2.3,1,2.3,2.3c0,1.3-1,2.3-2.3,2.3C17.9,38.5,16.9,37.5,16.9,36.2z"/>
		<path class="st4" d="M46.5,20.1c2,0,3.6-1.6,3.6-3.6s-1.6-3.6-3.6-3.6s-3.6,1.6-3.6,3.6S44.6,20.1,46.5,20.1z M46.5,14.2
			c1.3,0,2.3,1,2.3,2.3s-1,2.3-2.3,2.3s-2.3-1-2.3-2.3S45.3,14.2,46.5,14.2z"/>
	</g>
</g>
</svg>
