<?xml version="1.0" encoding="utf-8"?>
<!-- Generator: Adobe Illustrator 25.0.1, SVG Export Plug-In . SVG Version: 6.00 Build 0)  -->
<svg version="1.1" id="Layer_1" xmlns="http://www.w3.org/2000/svg" xmlns:xlink="http://www.w3.org/1999/xlink" x="0px" y="0px"
	 viewBox="0 0 70 70" style="enable-background:new 0 0 70 70;" xml:space="preserve">
<style type="text/css">
	.st0{fill:#EFA020;}
	.st1{fill:#50E3C2;}
	.st2{fill:#40E4FB;}
	.st3{fill:url(#SVGID_1_);}
	.st4{fill:#222B36;}
</style>
<g>
	<g>
		<path class="st0" d="M37.8,23.4l-0.6-0.5l-7.7,1.5l-0.1,0.7l7.9,6.3l0.7-0.3L37.8,23.4z"/>
	</g>
	<circle class="st1" cx="55.3" cy="20.4" r="7.5"/>
	<rect x="10.8" y="45.3" class="st2" width="48" height="3.1"/>
	<linearGradient id="SVGID_1_" gradientUnits="userSpaceOnUse" x1="7.1822" y1="17.8883" x2="21.9489" y2="17.8883">
		<stop  offset="0" style="stop-color:#5B7CFB"/>
		<stop  offset="0.98" style="stop-color:#5B7DFA;stop-opacity:0.5"/>
	</linearGradient>
	<rect x="7.2" y="13.9" class="st3" width="14.8" height="8"/>
	<g>
		<path class="st4" d="M58.8,15.6H10.9l-0.7,0.7v32.2l0.7,0.7h23.3v5.4h1.3v-5.4h23.3l0.7-0.7V16.3L58.8,15.6z M58.2,47.8H11.6V16.9
			h46.6V47.8z"/>
		<rect x="26" y="55.8" class="st4" width="17.7" height="1.3"/>
		<path class="st4" d="M47.1,33.9c3.7,0,6.7-3,6.7-6.7s-3-6.7-6.7-6.7s-6.7,3-6.7,6.7S43.4,33.9,47.1,33.9z M47.1,32.6
			c-1,0-2-0.3-2.8-0.8l3.2-4l4.9-1.1c0,0.2,0.1,0.3,0.1,0.5C52.5,30.2,50.1,32.6,47.1,32.6z M52.1,25.4l-4.4,1v-4.5
			C49.8,22.2,51.4,23.6,52.1,25.4z M46.4,21.9V27l-3.2,4c-0.9-1-1.5-2.3-1.5-3.7C41.7,24.5,43.8,22.3,46.4,21.9z"/>
		<rect x="41.2" y="37.1" class="st4" width="11.5" height="1.3"/>
		<rect x="41.2" y="41.2" class="st4" width="11.5" height="1.3"/>
		<polygon class="st4" points="38.2,42.6 38.2,41.3 16.2,41.3 16.2,21.1 14.9,21.1 14.9,41.9 15.6,42.6 		"/>
		<polygon class="st4" points="22.9,33.6 30.5,33.6 31,33.3 35.8,26.5 35.8,29.4 37.1,29.4 37.1,24.9 36.5,24.2 32,24.2 32,25.6 
			34.9,25.6 30.1,32.3 22.6,32.3 22.1,32.6 17.8,38.1 18.8,38.9 		"/>
	</g>
</g>
</svg>
