<?xml version="1.0" standalone="no"?>
<!DOCTYPE svg PUBLIC "-//W3C//DTD SVG 20010904//EN"
 "http://www.w3.org/TR/2001/REC-SVG-20010904/DTD/svg10.dtd">
<svg version="1.0" xmlns="http://www.w3.org/2000/svg"
 width="305.000000pt" height="305.000000pt" viewBox="0 0 305.000000 305.000000"
 preserveAspectRatio="xMidYMid meet">
<metadata>
Created by potrace 1.14, written by Peter Selinger 2001-2017
</metadata>
<g transform="translate(0.000000,305.000000) scale(0.100000,-0.100000)"
fill="#000000" stroke="none">
<path d="M1086 1932 c-21 -114 -49 -258 -63 -320 -14 -63 -22 -116 -19 -119 2
-3 56 17 118 44 l113 49 110 -153 c61 -85 111 -147 113 -140 2 8 -13 96 -32
195 -19 100 -41 219 -48 266 -6 48 -16 86 -22 86 -5 0 -43 -18 -84 -41 -41
-22 -78 -37 -82 -32 -4 4 -17 80 -30 168 -13 88 -26 170 -29 182 -4 13 -21
-59 -45 -185z"/>
<path d="M876 1989 c-121 -20 -243 -111 -310 -232 -48 -87 -66 -156 -66 -257
0 -141 47 -260 140 -358 66 -67 137 -108 229 -128 192 -43 381 25 492 175 27
36 49 69 49 72 0 3 -36 55 -81 114 -44 60 -85 118 -91 129 -10 18 -12 14 -24
-32 -36 -139 -116 -212 -234 -212 -131 0 -230 105 -230 246 0 66 31 142 73
182 25 23 122 62 156 62 11 0 22 8 25 18 9 30 46 206 46 219 0 15 -92 16 -174
2z"/>
<path d="M1570 1705 l0 -275 140 0 141 0 -6 -32 c-17 -101 -56 -316 -61 -333
-5 -18 47 86 200 400 l53 110 -114 3 -113 3 0 199 0 200 -120 0 -120 0 0 -275z"/>
<path d="M1860 1860 l0 -119 128 -3 127 -3 3 -332 2 -333 120 0 120 0 2 333 3
332 128 3 127 3 0 119 0 120 -380 0 -380 0 0 -120z"/>
<path d="M1230 1909 c0 -13 3 -34 6 -46 6 -21 8 -22 35 -7 32 16 32 14 -19 58
-22 19 -22 19 -22 -5z"/>
<path d="M1424 1890 c12 -133 77 -504 90 -518 9 -9 7 8 -19 149 -13 74 -31
184 -40 244 -18 124 -38 204 -31 125z"/>
</g>
</svg>
